<svg xmlns="http://www.w3.org/2000/svg">
  <symbol viewBox="0 0 22 42" id="icon-arrow-right">
    <path d="M19.661,20.859L0.248,1.446c-0.331-0.331-0.331-0.867,0-1.198c0.33-0.331,0.867-0.331,1.197,0l20.013,20.012 c0.33,0.33,0.33,0.867,0,1.197L1.445,41.471c-0.164,0.165-0.382,0.248-0.599,0.248s-0.434-0.083-0.599-0.248 c-0.331-0.331-0.331-0.867,0-1.198L19.661,20.859z">
    </path>
  </symbol>
  <symbol viewBox="0 0 22 42" id="icon-arrow-left">
    <path d="M2.045,20.859L21.458,1.446c0.331-0.331,0.331-0.867,0-1.198c-0.33-0.331-0.867-0.331-1.197,0L0.248,20.261 c-0.331,0.33-0.331,0.867,0,1.197l20.013,20.013c0.164,0.165,0.382,0.248,0.599,0.248s0.434-0.083,0.599-0.248 c0.331-0.331,0.331-0.867,0-1.198L2.045,20.859z"></path>
  </symbol>
</svg>
